<?xml version="1.0" encoding="UTF-8" standalone="no"?>
<!DOCTYPE svg PUBLIC "-//W3C//DTD SVG 1.1//EN"
 "http://www.w3.org/Graphics/SVG/1.1/DTD/svg11.dtd">
<!-- Generated by graphviz version 14.1.2 (0)
 -->
<!-- Title: g Pages: 1 -->
<svg width="195pt" height="527pt"
 viewBox="0.00 0.00 195.00 527.00" xmlns="http://www.w3.org/2000/svg" xmlns:xlink="http://www.w3.org/1999/xlink">
<g id="graph0" class="graph" transform="scale(1 1) rotate(0) translate(4 523.1)">
<title>g</title>
<polygon fill="white" stroke="none" points="-4,4 -4,-523.1 191,-523.1 191,4 -4,4"/>
<g id="clust1" class="cluster">
<title>cluster_v</title>
<polygon fill="none" stroke="black" stroke-dasharray="1,5" points="109,-337.6 109,-511.1 179,-511.1 179,-337.6 109,-337.6"/>
<text xml:space="preserve" text-anchor="middle" x="144" y="-493.8" font-family="Times,serif" font-size="14.00">v</text>
</g>
<g id="clust2" class="cluster">
<title>cluster_u</title>
<polygon fill="none" stroke="black" stroke-dasharray="1,5" points="31,-337.6 31,-414.85 101,-414.85 101,-337.6 31,-337.6"/>
<text xml:space="preserve" text-anchor="middle" x="66" y="-397.55" font-family="Times,serif" font-size="14.00">u</text>
</g>
<g id="clust3" class="cluster">
<title>cluster_dot</title>
<polygon fill="none" stroke="black" stroke-dasharray="1,5" points="8,-48.85 8,-318.6 162,-318.6 162,-48.85 8,-48.85"/>
<text xml:space="preserve" text-anchor="middle" x="85" y="-301.3" font-family="Times,serif" font-size="14.00">dot</text>
</g>
<!-- sbuild_21 -->
<g id="node1" class="node">
<title>sbuild_21</title>
<ellipse fill="none" stroke="black" stroke-dasharray="1,5" cx="144" cy="-363.6" rx="27" ry="18"/>
</g>
<!-- sbuild_22 -->
<g id="node6" class="node">
<title>sbuild_22</title>
<polygon fill="none" stroke="black" points="58,-234.35 58,-284.85 112,-284.85 112,-234.35 58,-234.35"/>
<text xml:space="preserve" text-anchor="middle" x="85" y="-267.55" font-family="Times,serif" font-size="14.00">n</text>
<polyline fill="none" stroke="black" points="58,-259.6 112,-259.6"/>
<text xml:space="preserve" text-anchor="middle" x="85" y="-242.3" font-family="Times,serif" font-size="14.00">0</text>
</g>
<!-- sbuild_21&#45;&gt;sbuild_22 -->
<g id="edge3" class="edge">
<title>sbuild_21&#45;&gt;sbuild_22</title>
<path fill="none" stroke="black" stroke-dasharray="5,2" d="M134.78,-346.66C125.25,-330.19 110.25,-304.26 99.21,-285.16"/>
</g>
<!-- sbuild_20 -->
<g id="node2" class="node">
<title>sbuild_20</title>
<ellipse fill="none" stroke="black" stroke-dasharray="1,5" cx="144" cy="-459.85" rx="27" ry="18"/>
</g>
<!-- sbuild_20&#45;&gt;sbuild_21 -->
<g id="edge2" class="edge">
<title>sbuild_20&#45;&gt;sbuild_21</title>
<path fill="none" stroke="black" stroke-dasharray="5,2" d="M144,-441.56C144,-424.66 144,-399.07 144,-382.1"/>
</g>
<!-- sbuild_18 -->
<g id="node3" class="node">
<title>sbuild_18</title>
<ellipse fill="none" stroke="black" stroke-dasharray="1,5" cx="66" cy="-363.6" rx="27" ry="18"/>
</g>
<!-- sbuild_18&#45;&gt;sbuild_22 -->
<g id="edge1" class="edge">
<title>sbuild_18&#45;&gt;sbuild_22</title>
<path fill="none" stroke="black" stroke-dasharray="5,2" d="M69.22,-345.3C72.29,-328.81 76.95,-303.83 80.41,-285.26"/>
</g>
<!-- sbuild_24 -->
<g id="node4" class="node">
<title>sbuild_24</title>
<polygon fill="none" stroke="black" points="16,-57.35 16,-107.85 154,-107.85 154,-57.35 16,-57.35"/>
<text xml:space="preserve" text-anchor="middle" x="28.5" y="-90.55" font-family="Times,serif" font-size="14.00">n</text>
<polyline fill="none" stroke="black" points="16,-82.6 41,-82.6"/>
<text xml:space="preserve" text-anchor="middle" x="28.5" y="-65.3" font-family="Times,serif" font-size="14.00">0</text>
<polyline fill="none" stroke="black" points="41,-57.35 41,-107.85"/>
<text xml:space="preserve" text-anchor="middle" x="73.75" y="-90.55" font-family="Times,serif" font-size="14.00">acc_9</text>
<polyline fill="none" stroke="black" points="41,-82.6 106.5,-82.6"/>
<text xml:space="preserve" text-anchor="middle" x="73.75" y="-65.3" font-family="Times,serif" font-size="14.00">70:u16</text>
<polyline fill="none" stroke="black" points="106.5,-57.35 106.5,-107.85"/>
<text xml:space="preserve" text-anchor="middle" x="130.25" y="-90.55" font-family="Times,serif" font-size="14.00">i_10</text>
<polyline fill="none" stroke="black" points="106.5,-82.6 154,-82.6"/>
<text xml:space="preserve" text-anchor="middle" x="130.25" y="-65.3" font-family="Times,serif" font-size="14.00">4:u3</text>
</g>
<!-- sink -->
<g id="node7" class="node">
<title>sink</title>
<ellipse fill="black" stroke="black" cx="85" cy="-1.8" rx="1.8" ry="1.8"/>
</g>
<!-- sbuild_24&#45;&gt;sink -->
<g id="edge6" class="edge">
<title>sbuild_24&#45;&gt;sink</title>
<path fill="none" stroke="green" d="M85,-45.59C85,-34.64 85,-23.33 85,-15.09"/>
<polygon fill="green" stroke="green" points="81.5,-45.59 85,-55.59 88.5,-45.59 81.5,-45.59"/>
<polygon fill="green" stroke="green" points="88.5,-15.1 85,-5.1 81.5,-15.1 88.5,-15.1"/>
<text xml:space="preserve" text-anchor="middle" x="109.75" y="-25.55" font-family="Times,serif" font-size="14.00">70:u16</text>
</g>
<!-- sbuild_23 -->
<g id="node5" class="node">
<title>sbuild_23</title>
<polygon fill="none" stroke="black" points="58,-145.85 58,-196.35 112,-196.35 112,-145.85 58,-145.85"/>
<text xml:space="preserve" text-anchor="middle" x="85" y="-179.05" font-family="Times,serif" font-size="14.00">n</text>
<polyline fill="none" stroke="black" points="58,-171.1 112,-171.1"/>
<text xml:space="preserve" text-anchor="middle" x="85" y="-153.8" font-family="Times,serif" font-size="14.00">0</text>
</g>
<!-- sbuild_23&#45;&gt;sbuild_24 -->
<g id="edge5" class="edge">
<title>sbuild_23&#45;&gt;sbuild_24</title>
<path fill="none" stroke="black" stroke-dasharray="5,2" d="M85,-145.54C85,-133.86 85,-119.91 85,-108.22"/>
</g>
<!-- sbuild_22&#45;&gt;sbuild_23 -->
<g id="edge4" class="edge">
<title>sbuild_22&#45;&gt;sbuild_23</title>
<path fill="none" stroke="black" stroke-dasharray="5,2" d="M85,-234.04C85,-222.36 85,-208.41 85,-196.72"/>
</g>
</g>
</svg>
