<?xml version="1.0" encoding="UTF-8" standalone="no"?>
<!DOCTYPE svg PUBLIC "-//W3C//DTD SVG 1.1//EN"
 "http://www.w3.org/Graphics/SVG/1.1/DTD/svg11.dtd">
<!-- Generated by graphviz version 14.1.2 (0)
 -->
<!-- Title: g Pages: 1 -->
<svg width="184pt" height="478pt"
 viewBox="0.00 0.00 184.00 478.00" xmlns="http://www.w3.org/2000/svg" xmlns:xlink="http://www.w3.org/1999/xlink">
<g id="graph0" class="graph" transform="scale(1 1) rotate(0) translate(4 473.85)">
<title>g</title>
<polygon fill="white" stroke="none" points="-4,4 -4,-473.85 180,-473.85 180,4 -4,4"/>
<g id="clust1" class="cluster">
<title>cluster_v</title>
<polygon fill="none" stroke="black" stroke-dasharray="1,5" points="86,-307.35 86,-461.85 156,-461.85 156,-307.35 86,-307.35"/>
<text xml:space="preserve" text-anchor="middle" x="121" y="-444.55" font-family="Times,serif" font-size="14.00">v</text>
</g>
<g id="clust2" class="cluster">
<title>cluster_u</title>
<polygon fill="none" stroke="black" stroke-dasharray="1,5" points="8,-307.35 8,-384.6 78,-384.6 78,-307.35 8,-307.35"/>
<text xml:space="preserve" text-anchor="middle" x="43" y="-367.3" font-family="Times,serif" font-size="14.00">u</text>
</g>
<g id="clust3" class="cluster">
<title>cluster_dot</title>
<polygon fill="none" stroke="black" stroke-dasharray="1,5" points="14,-31.6 14,-299.35 168,-299.35 168,-31.6 14,-31.6"/>
<text xml:space="preserve" text-anchor="middle" x="91" y="-282.05" font-family="Times,serif" font-size="14.00">dot</text>
</g>
<!-- sbuild_21 -->
<g id="node1" class="node">
<title>sbuild_21</title>
<ellipse fill="none" stroke="black" stroke-dasharray="1,5" cx="121" cy="-333.35" rx="27" ry="18"/>
</g>
<!-- sbuild_22 -->
<g id="node6" class="node">
<title>sbuild_22</title>
<polygon fill="none" stroke="black" points="64,-215.1 64,-265.6 118,-265.6 118,-215.1 64,-215.1"/>
<text xml:space="preserve" text-anchor="middle" x="91" y="-248.3" font-family="Times,serif" font-size="14.00">n</text>
<polyline fill="none" stroke="black" points="64,-240.35 118,-240.35"/>
<text xml:space="preserve" text-anchor="middle" x="91" y="-223.05" font-family="Times,serif" font-size="14.00">0</text>
</g>
<!-- sbuild_21&#45;&gt;sbuild_22 -->
<g id="edge3" class="edge">
<title>sbuild_21&#45;&gt;sbuild_22</title>
<path fill="none" stroke="black" stroke-dasharray="5,2" d="M115.5,-315.66C110.9,-301.7 104.27,-281.6 99.07,-265.83"/>
</g>
<!-- sbuild_20 -->
<g id="node2" class="node">
<title>sbuild_20</title>
<ellipse fill="none" stroke="black" stroke-dasharray="1,5" cx="121" cy="-410.6" rx="27" ry="18"/>
</g>
<!-- sbuild_20&#45;&gt;sbuild_21 -->
<g id="edge2" class="edge">
<title>sbuild_20&#45;&gt;sbuild_21</title>
<path fill="none" stroke="black" stroke-dasharray="5,2" d="M121,-392.15C121,-379.99 121,-363.84 121,-351.71"/>
</g>
<!-- sbuild_18 -->
<g id="node3" class="node">
<title>sbuild_18</title>
<ellipse fill="none" stroke="black" stroke-dasharray="1,5" cx="43" cy="-333.35" rx="27" ry="18"/>
</g>
<!-- sbuild_18&#45;&gt;sbuild_22 -->
<g id="edge1" class="edge">
<title>sbuild_18&#45;&gt;sbuild_22</title>
<path fill="none" stroke="black" stroke-dasharray="5,2" d="M51.58,-316.08C58.92,-302.18 69.58,-281.95 77.97,-266.05"/>
</g>
<!-- sbuild_24 -->
<g id="node4" class="node">
<title>sbuild_24</title>
<polygon fill="none" stroke="black" points="22,-40.1 22,-90.6 160,-90.6 160,-40.1 22,-40.1"/>
<text xml:space="preserve" text-anchor="middle" x="34.5" y="-73.3" font-family="Times,serif" font-size="14.00">n</text>
<polyline fill="none" stroke="black" points="22,-65.35 47,-65.35"/>
<text xml:space="preserve" text-anchor="middle" x="34.5" y="-48.05" font-family="Times,serif" font-size="14.00">0</text>
<polyline fill="none" stroke="black" points="47,-40.1 47,-90.6"/>
<text xml:space="preserve" text-anchor="middle" x="79.75" y="-73.3" font-family="Times,serif" font-size="14.00">acc_9</text>
<polyline fill="none" stroke="black" points="47,-65.35 112.5,-65.35"/>
<text xml:space="preserve" text-anchor="middle" x="79.75" y="-48.05" font-family="Times,serif" font-size="14.00">70:u16</text>
<polyline fill="none" stroke="black" points="112.5,-40.1 112.5,-90.6"/>
<text xml:space="preserve" text-anchor="middle" x="136.25" y="-73.3" font-family="Times,serif" font-size="14.00">i_10</text>
<polyline fill="none" stroke="black" points="112.5,-65.35 160,-65.35"/>
<text xml:space="preserve" text-anchor="middle" x="136.25" y="-48.05" font-family="Times,serif" font-size="14.00">4:u3</text>
</g>
<!-- sink -->
<g id="node7" class="node">
<title>sink</title>
<ellipse fill="black" stroke="black" cx="91" cy="-1.8" rx="1.8" ry="1.8"/>
</g>
<!-- sbuild_24&#45;&gt;sink -->
<g id="edge6" class="edge">
<title>sbuild_24&#45;&gt;sink</title>
<path fill="none" stroke="black" stroke-dasharray="5,2" d="M91,-28.49C91,-17.39 91,-7.2 91,-3.91"/>
<polygon fill="black" stroke="black" points="87.5,-28.16 91,-38.16 94.5,-28.16 87.5,-28.16"/>
</g>
<!-- sbuild_23 -->
<g id="node5" class="node">
<title>sbuild_23</title>
<polygon fill="none" stroke="black" points="64,-127.6 64,-178.1 118,-178.1 118,-127.6 64,-127.6"/>
<text xml:space="preserve" text-anchor="middle" x="91" y="-160.8" font-family="Times,serif" font-size="14.00">n</text>
<polyline fill="none" stroke="black" points="64,-152.85 118,-152.85"/>
<text xml:space="preserve" text-anchor="middle" x="91" y="-135.55" font-family="Times,serif" font-size="14.00">0</text>
</g>
<!-- sbuild_23&#45;&gt;sbuild_24 -->
<g id="edge5" class="edge">
<title>sbuild_23&#45;&gt;sbuild_24</title>
<path fill="none" stroke="black" stroke-dasharray="5,2" d="M91,-127.12C91,-115.78 91,-102.36 91,-91.02"/>
</g>
<!-- sbuild_22&#45;&gt;sbuild_23 -->
<g id="edge4" class="edge">
<title>sbuild_22&#45;&gt;sbuild_23</title>
<path fill="none" stroke="black" stroke-dasharray="5,2" d="M91,-214.62C91,-203.28 91,-189.86 91,-178.52"/>
</g>
</g>
</svg>
