<?xml version="1.0" encoding="UTF-8"?>
<svg xmlns="http://www.w3.org/2000/svg" xmlns:xlink="http://www.w3.org/1999/xlink" width="278.661" height="93.818" viewBox="0 0 278.661 93.818">
<defs>
<g>
<g id="glyph-0-0">
<path d="M 2.875 -4.296875 L 3.53125 -4.296875 C 3.609375 -4.296875 3.6875 -4.296875 3.78125 -4.296875 L 4.78125 -4.296875 L 4.78125 -4.78125 L 0.265625 -4.78125 L 0.265625 -4.296875 L 1.265625 -4.296875 C 1.34375 -4.296875 1.4375 -4.296875 1.515625 -4.296875 L 2.171875 -4.296875 L 2.171875 0 L 2.875 0 Z M 2.875 -4.296875 "/>
</g>
<g id="glyph-0-1">
<path d="M 1.171875 -1.484375 C 1.171875 -2.234375 1.796875 -2.640625 2.40625 -2.640625 L 2.40625 -3.15625 C 1.828125 -3.15625 1.40625 -2.859375 1.125 -2.5 L 1.125 -3.140625 L 0.59375 -3.140625 L 0.59375 0 L 1.171875 0 Z M 1.171875 -1.484375 "/>
</g>
<g id="glyph-0-2">
<path d="M 2.96875 -2 C 2.96875 -2.71875 2.421875 -3.1875 1.734375 -3.1875 C 1.296875 -3.1875 0.953125 -3.09375 0.5625 -2.890625 L 0.609375 -2.390625 C 0.84375 -2.53125 1.1875 -2.75 1.734375 -2.75 C 2.03125 -2.75 2.359375 -2.515625 2.359375 -2 L 2.359375 -1.71875 C 1.328125 -1.6875 0.3125 -1.46875 0.3125 -0.828125 C 0.3125 -0.46875 0.546875 0.0625 1.15625 0.0625 C 1.453125 0.0625 2.015625 0 2.375 -0.265625 L 2.375 0 L 2.96875 0 Z M 2.359375 -0.984375 C 2.359375 -0.84375 2.359375 -0.671875 2.109375 -0.515625 C 1.890625 -0.390625 1.625 -0.390625 1.546875 -0.390625 C 1.15625 -0.390625 0.875 -0.5625 0.875 -0.828125 C 0.875 -1.265625 2.046875 -1.3125 2.359375 -1.328125 Z M 2.359375 -0.984375 "/>
</g>
<g id="glyph-0-3">
<path d="M 3.21875 -4.828125 L 2.640625 -4.828125 L 2.640625 -2.78125 C 2.1875 -3.109375 1.734375 -3.15625 1.53125 -3.15625 C 0.8125 -3.15625 0.25 -2.421875 0.25 -1.546875 C 0.25 -0.65625 0.796875 0.0625 1.515625 0.0625 C 1.953125 0.0625 2.34375 -0.125 2.609375 -0.359375 L 2.609375 0 L 3.21875 0 Z M 2.609375 -0.859375 C 2.4375 -0.578125 2.171875 -0.390625 1.84375 -0.390625 C 1.359375 -0.390625 0.859375 -0.734375 0.859375 -1.53125 C 0.859375 -2.40625 1.453125 -2.703125 1.921875 -2.703125 C 2.203125 -2.703125 2.4375 -2.578125 2.609375 -2.34375 Z M 2.609375 -0.859375 "/>
</g>
<g id="glyph-0-4">
<path d="M 1.21875 -4.765625 L 0.515625 -4.765625 L 0.515625 -4.0625 L 1.21875 -4.0625 Z M 1.171875 -3.09375 L 0.578125 -3.09375 L 0.578125 0 L 1.171875 0 Z M 1.171875 -3.09375 "/>
</g>
<g id="glyph-0-5">
<path d="M 1.3125 -2.65625 L 2.34375 -2.65625 L 2.34375 -3.09375 L 1.3125 -3.09375 L 1.3125 -3.96875 L 0.765625 -3.96875 L 0.765625 -3.09375 L 0.140625 -3.09375 L 0.140625 -2.65625 L 0.75 -2.65625 L 0.75 -0.890625 C 0.75 -0.421875 0.875 0.0625 1.375 0.0625 C 1.875 0.0625 2.25 -0.09375 2.46875 -0.1875 L 2.34375 -0.625 C 2.109375 -0.46875 1.875 -0.40625 1.671875 -0.40625 C 1.390625 -0.40625 1.3125 -0.703125 1.3125 -1.015625 Z M 1.3125 -2.65625 "/>
</g>
<g id="glyph-0-6">
<path d="M 3.484375 -1.515625 C 3.484375 -2.4375 2.75 -3.1875 1.84375 -3.1875 C 0.9375 -3.1875 0.203125 -2.4375 0.203125 -1.515625 C 0.203125 -0.640625 0.953125 0.0625 1.84375 0.0625 C 2.75 0.0625 3.484375 -0.640625 3.484375 -1.515625 Z M 1.84375 -0.40625 C 1.296875 -0.40625 0.8125 -0.8125 0.8125 -1.59375 C 0.8125 -2.390625 1.328125 -2.734375 1.84375 -2.734375 C 2.359375 -2.734375 2.875 -2.375 2.875 -1.59375 C 2.875 -0.8125 2.375 -0.40625 1.84375 -0.40625 Z M 1.84375 -0.40625 "/>
</g>
<g id="glyph-0-7">
<path d="M 3.234375 -2.0625 C 3.234375 -2.59375 3.078125 -3.15625 2.21875 -3.15625 C 1.828125 -3.15625 1.4375 -3 1.140625 -2.625 L 1.140625 -3.140625 L 0.578125 -3.140625 L 0.578125 0 L 1.1875 0 L 1.1875 -1.6875 C 1.1875 -2.15625 1.375 -2.703125 1.90625 -2.703125 C 2.625 -2.703125 2.625 -2.21875 2.625 -2.015625 L 2.625 0 L 3.234375 0 Z M 3.234375 -2.0625 "/>
</g>
<g id="glyph-0-8">
<path d="M 1.171875 -4.828125 L 0.578125 -4.828125 L 0.578125 0 L 1.171875 0 Z M 1.171875 -4.828125 "/>
</g>
<g id="glyph-0-9">
<path d="M 3.125 -2.25 C 4.109375 -2.546875 4.359375 -3.15625 4.359375 -3.53125 C 4.359375 -4.25 3.515625 -4.828125 2.515625 -4.828125 L 0.6875 -4.828125 L 0.6875 0 L 1.359375 0 L 1.359375 -2.1875 L 2.515625 -2.1875 L 3.859375 0 L 4.5625 0 Z M 1.359375 -2.640625 L 1.359375 -4.421875 L 2.421875 -4.421875 C 3.21875 -4.421875 3.734375 -4.046875 3.734375 -3.53125 C 3.734375 -3.03125 3.25 -2.640625 2.421875 -2.640625 Z M 1.359375 -2.640625 "/>
</g>
<g id="glyph-0-10">
<path d="M 1.375 -4.828125 L 0.671875 -4.828125 L 0.671875 0 L 3.703125 0 L 3.703125 -0.5 C 3.046875 -0.5 2.390625 -0.484375 1.71875 -0.484375 L 1.375 -0.484375 Z M 1.375 -4.828125 "/>
</g>
<g id="glyph-0-11">
<path d="M 4.9375 -3.09375 L 4.390625 -3.09375 C 4.328125 -2.890625 3.9375 -1.71875 3.734375 -1 C 3.671875 -0.796875 3.609375 -0.5625 3.578125 -0.40625 C 3.53125 -0.703125 3.28125 -1.453125 3.28125 -1.5 L 2.765625 -3.09375 L 2.234375 -3.09375 C 2.03125 -2.484375 1.515625 -0.9375 1.453125 -0.421875 C 1.390625 -0.921875 0.875 -2.453125 0.765625 -2.78125 C 0.703125 -2.953125 0.703125 -2.96875 0.671875 -3.09375 L 0.109375 -3.09375 L 1.125 0 L 1.703125 0 C 1.703125 -0.03125 1.890625 -0.578125 2.140625 -1.34375 C 2.25 -1.6875 2.453125 -2.359375 2.484375 -2.65625 L 2.5 -2.671875 C 2.515625 -2.53125 2.546875 -2.375 2.59375 -2.203125 C 2.65625 -2.015625 2.703125 -1.828125 2.75 -1.671875 L 3.28125 0 L 3.921875 0 Z M 4.9375 -3.09375 "/>
</g>
<g id="glyph-0-12">
<path d="M 2.078125 -1.890625 L 3.3125 -3.09375 L 2.640625 -3.09375 L 1.15625 -1.640625 L 1.15625 -4.828125 L 0.609375 -4.828125 L 0.609375 0 L 1.125 0 L 1.125 -0.96875 L 1.71875 -1.546875 L 2.859375 0 L 3.484375 0 Z M 2.078125 -1.890625 "/>
</g>
<g id="glyph-0-13">
<path d="M 1.328125 -2.65625 L 2.171875 -2.65625 L 2.171875 -3.09375 L 1.296875 -3.09375 L 1.296875 -3.90625 C 1.296875 -4.3125 1.53125 -4.4375 1.734375 -4.4375 C 1.953125 -4.4375 2.125 -4.34375 2.171875 -4.3125 L 2.171875 -4.828125 C 2.15625 -4.828125 1.953125 -4.890625 1.734375 -4.890625 C 1.203125 -4.890625 0.734375 -4.421875 0.734375 -3.703125 L 0.734375 -3.09375 L 0.203125 -3.09375 L 0.203125 -2.65625 L 0.734375 -2.65625 L 0.734375 0 L 1.328125 0 Z M 3.359375 -4.828125 L 2.78125 -4.828125 L 2.78125 0 L 3.359375 0 Z M 3.359375 -4.828125 "/>
</g>
<g id="glyph-0-14">
<path d="M 6.859375 -4.828125 L 6.328125 -4.828125 L 5.640625 -2.640625 C 5.609375 -2.484375 5.125 -0.9375 5.0625 -0.5625 C 5.015625 -0.90625 4.515625 -2.546875 4.5 -2.59375 L 3.8125 -4.828125 L 3.21875 -4.828125 L 2.578125 -2.734375 C 2.5 -2.5 2.046875 -1.015625 2 -0.5625 L 1.984375 -0.5625 C 1.953125 -0.984375 1.4375 -2.65625 1.40625 -2.71875 L 0.765625 -4.828125 L 0.109375 -4.828125 L 1.609375 0 L 2.203125 0 L 2.921875 -2.328125 L 3.265625 -3.484375 C 3.375 -3.859375 3.421875 -4.078125 3.453125 -4.265625 L 3.46875 -4.265625 C 3.5 -3.9375 3.671875 -3.375 3.796875 -2.96875 L 4.375 -1.0625 L 4.71875 0 L 5.359375 0 Z M 6.859375 -4.828125 "/>
</g>
<g id="glyph-0-15">
<path d="M 2.984375 -0.765625 C 2.59375 -0.484375 2.15625 -0.390625 1.859375 -0.390625 C 1.265625 -0.390625 0.796875 -0.890625 0.78125 -1.515625 L 3.0625 -1.515625 C 3.0625 -1.84375 3.03125 -2.3125 2.75 -2.703125 C 2.5 -3.0625 2.09375 -3.1875 1.75 -3.1875 C 0.890625 -3.1875 0.25 -2.453125 0.25 -1.5625 C 0.25 -0.671875 0.9375 0.0625 1.859375 0.0625 C 2.265625 0.0625 2.671875 -0.046875 3.03125 -0.265625 Z M 0.828125 -1.9375 C 0.984375 -2.5 1.390625 -2.734375 1.75 -2.734375 C 2.046875 -2.734375 2.5 -2.59375 2.640625 -1.9375 Z M 0.828125 -1.9375 "/>
</g>
<g id="glyph-0-16">
<path d="M 1.328125 -0.625 L 0.703125 -0.625 L 0.703125 0 L 1.328125 0 Z M 1.328125 -0.625 "/>
</g>
<g id="glyph-0-17">
<path d="M 2.53125 -2.96875 C 2.0625 -3.171875 1.71875 -3.1875 1.46875 -3.1875 C 1.296875 -3.1875 0.25 -3.1875 0.25 -2.265625 C 0.25 -1.9375 0.421875 -1.765625 0.515625 -1.671875 C 0.765625 -1.4375 1.046875 -1.375 1.421875 -1.3125 C 1.75 -1.25 2.125 -1.171875 2.125 -0.84375 C 2.125 -0.40625 1.546875 -0.40625 1.453125 -0.40625 C 1 -0.40625 0.578125 -0.5625 0.3125 -0.765625 L 0.203125 -0.234375 C 0.4375 -0.125 0.875 0.0625 1.453125 0.0625 C 1.765625 0.0625 2.0625 0.015625 2.328125 -0.171875 C 2.578125 -0.359375 2.65625 -0.671875 2.65625 -0.90625 C 2.65625 -1.03125 2.65625 -1.296875 2.359375 -1.5625 C 2.09375 -1.796875 1.84375 -1.84375 1.515625 -1.90625 C 1.109375 -1.984375 0.78125 -2.046875 0.78125 -2.34375 C 0.78125 -2.75 1.296875 -2.75 1.390625 -2.75 C 1.796875 -2.75 2.09375 -2.65625 2.453125 -2.484375 Z M 2.53125 -2.96875 "/>
</g>
<g id="glyph-0-18">
<path d="M 1.203125 -0.328125 C 1.5625 0 1.953125 0.0625 2.203125 0.0625 C 2.9375 0.0625 3.5625 -0.625 3.5625 -1.546875 C 3.5625 -2.390625 3.09375 -3.15625 2.40625 -3.15625 C 2.09375 -3.15625 1.578125 -3.0625 1.171875 -2.75 L 1.171875 -3.09375 L 0.59375 -3.09375 L 0.59375 1.34375 L 1.203125 1.34375 Z M 1.203125 -2.3125 C 1.359375 -2.5 1.625 -2.671875 1.953125 -2.671875 C 2.515625 -2.671875 2.953125 -2.15625 2.953125 -1.546875 C 2.953125 -0.859375 2.4375 -0.390625 1.890625 -0.390625 C 1.78125 -0.390625 1.609375 -0.40625 1.4375 -0.546875 C 1.21875 -0.703125 1.203125 -0.8125 1.203125 -0.953125 Z M 1.203125 -2.3125 "/>
</g>
<g id="glyph-0-19">
<path d="M 4.296875 -0.84375 C 3.8125 -0.546875 3.59375 -0.421875 2.90625 -0.421875 C 1.828125 -0.421875 1.171875 -1.421875 1.171875 -2.421875 C 1.171875 -3.453125 1.890625 -4.421875 2.90625 -4.421875 C 3.359375 -4.421875 3.828125 -4.28125 4.15625 -4.03125 L 4.265625 -4.671875 C 3.78125 -4.84375 3.390625 -4.90625 2.875 -4.90625 C 1.5 -4.90625 0.46875 -3.765625 0.46875 -2.421875 C 0.46875 -0.984375 1.5625 0.0625 2.921875 0.0625 C 3.609375 0.0625 3.890625 -0.0625 4.34375 -0.3125 Z M 4.296875 -0.84375 "/>
</g>
<g id="glyph-0-20">
<path d="M 5.28125 -2.0625 C 5.28125 -2.59375 5.125 -3.15625 4.265625 -3.15625 C 3.6875 -3.15625 3.328125 -2.8125 3.15625 -2.59375 C 3.09375 -2.78125 2.90625 -3.15625 2.21875 -3.15625 C 1.828125 -3.15625 1.4375 -3 1.140625 -2.625 L 1.140625 -3.140625 L 0.578125 -3.140625 L 0.578125 0 L 1.1875 0 L 1.1875 -1.6875 C 1.1875 -2.15625 1.375 -2.703125 1.90625 -2.703125 C 2.625 -2.703125 2.625 -2.21875 2.625 -2.015625 L 2.625 0 L 3.234375 0 L 3.234375 -1.6875 C 3.234375 -2.15625 3.421875 -2.703125 3.96875 -2.703125 C 4.671875 -2.703125 4.671875 -2.21875 4.671875 -2.015625 L 4.671875 0 L 5.28125 0 Z M 5.28125 -2.0625 "/>
</g>
<g id="glyph-0-21">
<path d="M 3.4375 -4.625 C 2.984375 -4.859375 2.59375 -4.96875 2.078125 -4.96875 C 1.03125 -4.96875 0.40625 -4.265625 0.40625 -3.59375 C 0.40625 -3.3125 0.5 -2.96875 0.84375 -2.65625 C 1.140625 -2.375 1.46875 -2.296875 1.890625 -2.203125 C 2.484375 -2.0625 2.640625 -2.015625 2.84375 -1.8125 C 2.96875 -1.6875 3.09375 -1.484375 3.09375 -1.25 C 3.09375 -0.828125 2.703125 -0.375 2.015625 -0.375 C 1.625 -0.375 0.984375 -0.5 0.4375 -0.953125 L 0.328125 -0.328125 C 0.671875 -0.125 1.25 0.140625 2.03125 0.140625 C 3 0.140625 3.6875 -0.5625 3.6875 -1.328125 C 3.6875 -1.890625 3.359375 -2.21875 3.21875 -2.359375 C 2.921875 -2.65625 2.609375 -2.71875 2.078125 -2.84375 C 1.640625 -2.953125 1.421875 -3 1.265625 -3.15625 C 1.171875 -3.25 1.015625 -3.40625 1.015625 -3.671875 C 1.015625 -4.0625 1.390625 -4.46875 2.078125 -4.46875 C 2.59375 -4.46875 2.96875 -4.296875 3.328125 -4 Z M 3.4375 -4.625 "/>
</g>
<g id="glyph-0-22">
<path d="M 3.234375 -3.09375 L 2.625 -3.09375 L 2.625 -1.078125 C 2.625 -0.515625 2.15625 -0.34375 1.75 -0.34375 C 1.234375 -0.34375 1.1875 -0.484375 1.1875 -0.796875 L 1.1875 -3.09375 L 0.578125 -3.09375 L 0.578125 -0.765625 C 0.578125 -0.140625 0.84375 0.0625 1.328125 0.0625 C 1.625 0.0625 2.234375 0.015625 2.65625 -0.3125 L 2.65625 0 L 3.234375 0 Z M 3.234375 -3.09375 "/>
</g>
<g id="glyph-0-23">
<path d="M 3.296875 -3.09375 L 2.734375 -3.09375 C 2.171875 -1.765625 1.78125 -0.859375 1.75 -0.4375 C 1.734375 -0.625 1.609375 -0.984375 1.484375 -1.3125 C 1.375 -1.578125 1.265625 -1.859375 1.140625 -2.140625 L 0.703125 -3.09375 L 0.109375 -3.09375 L 1.546875 0 C 1.453125 0.203125 1.328125 0.515625 1.28125 0.609375 C 1.140625 0.90625 1.03125 1 0.84375 1 C 0.828125 1 0.5625 1 0.265625 0.875 L 0.3125 1.359375 C 0.375 1.375 0.625 1.421875 0.84375 1.421875 C 1.125 1.421875 1.375 1.3125 1.65625 0.640625 Z M 3.296875 -3.09375 "/>
</g>
<g id="glyph-0-24">
<path d="M 3.234375 -2.0625 C 3.234375 -2.59375 3.078125 -3.15625 2.21875 -3.15625 C 1.625 -3.15625 1.296875 -2.8125 1.15625 -2.65625 L 1.15625 -4.828125 L 0.578125 -4.828125 L 0.578125 0 L 1.1875 0 L 1.1875 -1.6875 C 1.1875 -2.15625 1.375 -2.703125 1.90625 -2.703125 C 2.625 -2.703125 2.625 -2.21875 2.625 -2.015625 L 2.625 0 L 3.234375 0 Z M 3.234375 -2.0625 "/>
</g>
<g id="glyph-0-25">
<path d="M 2.953125 -2.796875 L 2.953125 -3.09375 L 0.3125 -3.09375 L 0.3125 -2.640625 L 1.328125 -2.640625 C 1.40625 -2.640625 1.5 -2.65625 1.578125 -2.65625 L 2.125 -2.65625 L 0.203125 -0.3125 L 0.203125 0 L 2.96875 0 L 2.96875 -0.46875 L 1.890625 -0.46875 C 1.8125 -0.46875 1.71875 -0.453125 1.640625 -0.453125 L 1.03125 -0.453125 Z M 2.953125 -2.796875 "/>
</g>
<g id="glyph-0-26">
<path d="M 1.328125 -3.09375 L 0.703125 -3.09375 L 0.703125 -2.46875 L 1.328125 -2.46875 Z M 0.703125 -0.625 L 0.703125 0 L 1.328125 0 L 1.328125 -0.625 Z M 0.703125 -0.625 "/>
</g>
<g id="glyph-0-27">
<path d="M 0.6875 -4.828125 L 0.6875 0 L 2.65625 0 C 3.90625 0 4.921875 -1.0625 4.921875 -2.375 C 4.921875 -3.734375 3.90625 -4.828125 2.65625 -4.828125 Z M 1.359375 -0.40625 L 1.359375 -4.421875 L 2.46875 -4.421875 C 3.421875 -4.421875 4.234375 -3.65625 4.234375 -2.375 C 4.234375 -1.078125 3.390625 -0.40625 2.46875 -0.40625 Z M 1.359375 -0.40625 "/>
</g>
<g id="glyph-0-28">
<path d="M 5.046875 -2.390625 C 5.046875 -3.828125 3.984375 -4.96875 2.71875 -4.96875 C 1.46875 -4.96875 0.40625 -3.828125 0.40625 -2.390625 C 0.40625 -0.953125 1.484375 0.140625 2.71875 0.140625 C 3.984375 0.140625 5.046875 -0.953125 5.046875 -2.390625 Z M 2.71875 -0.34375 C 1.890625 -0.34375 1.109375 -1.1875 1.109375 -2.5 C 1.109375 -3.734375 1.890625 -4.484375 2.71875 -4.484375 C 3.5625 -4.484375 4.34375 -3.734375 4.34375 -2.5 C 4.34375 -1.1875 3.5625 -0.34375 2.71875 -0.34375 Z M 2.71875 -0.34375 "/>
</g>
<g id="glyph-0-29">
<path d="M 2.734375 -2.921875 L 4.71875 -4.828125 L 4 -4.828125 L 1.34375 -2.265625 L 1.34375 -4.828125 L 0.703125 -4.828125 L 0.703125 0 L 1.34375 0 L 1.34375 -1.578125 L 2.3125 -2.515625 L 4.109375 0 L 4.8125 0 Z M 2.734375 -2.921875 "/>
</g>
<g id="glyph-0-30">
<path d="M 1.890625 -1.578125 C 1.890625 -2.375 2.484375 -2.84375 2.703125 -3.015625 C 2.953125 -3.21875 3.078125 -3.5 3.078125 -3.8125 C 3.078125 -4.359375 2.71875 -4.890625 1.65625 -4.890625 C 1.234375 -4.890625 0.828125 -4.796875 0.40625 -4.53125 L 0.578125 -4.0625 C 1.078125 -4.4375 1.515625 -4.4375 1.671875 -4.4375 C 1.953125 -4.4375 2.46875 -4.40625 2.46875 -3.828125 C 2.46875 -3.53125 2.328125 -3.40625 2.1875 -3.296875 C 1.703125 -2.90625 1.390625 -2.296875 1.390625 -1.59375 L 1.390625 -1.25 L 1.890625 -1.25 Z M 1.328125 0 L 1.953125 0 L 1.953125 -0.625 L 1.328125 -0.625 Z M 1.328125 0 "/>
</g>
<g id="glyph-0-31">
<path d="M 3.296875 -3.09375 L 2.734375 -3.09375 C 1.78125 -0.765625 1.75 -0.5625 1.71875 -0.40625 L 1.703125 -0.40625 C 1.65625 -0.6875 1.453125 -1.171875 1.25 -1.703125 L 0.6875 -3.09375 L 0.109375 -3.09375 L 1.375 0 L 2.015625 0 Z M 3.296875 -3.09375 "/>
</g>
<g id="glyph-0-32">
<path d="M 4.890625 -4.828125 L 4.203125 -4.828125 L 2.53125 -2.484375 L 0.859375 -4.828125 L 0.015625 -4.828125 L 2.125 -1.9375 L 2.125 0 L 2.796875 0 L 2.796875 -1.9375 Z M 4.890625 -4.828125 "/>
</g>
<g id="glyph-0-33">
<path d="M 1.640625 -4.828125 L 0.703125 -4.828125 L 0.703125 0 L 1.28125 0 L 1.28125 -4.28125 L 3.5625 0 L 4.515625 0 L 4.515625 -4.828125 L 3.921875 -4.828125 L 3.921875 -0.546875 Z M 1.640625 -4.828125 "/>
</g>
<g id="glyph-1-0">
<path d="M 5.171875 -1.578125 C 5.28125 -1.578125 5.453125 -1.578125 5.453125 -1.734375 C 5.453125 -1.90625 5.296875 -1.90625 5.171875 -1.90625 L 1.03125 -1.90625 C 0.921875 -1.90625 0.75 -1.90625 0.75 -1.75 C 0.75 -1.578125 0.90625 -1.578125 1.03125 -1.578125 Z M 5.171875 -1.578125 "/>
</g>
<g id="glyph-1-1">
<path d="M 6.390625 -1.578125 C 5.515625 -0.9375 5.40625 -0.015625 5.40625 -0.015625 C 5.40625 0.09375 5.46875 0.09375 5.5625 0.09375 C 5.6875 0.09375 5.71875 0.09375 5.75 -0.03125 C 5.796875 -0.203125 5.90625 -0.640625 6.265625 -1.03125 C 6.671875 -1.453125 7.015625 -1.5625 7.3125 -1.640625 C 7.34375 -1.65625 7.375 -1.703125 7.375 -1.734375 C 7.375 -1.8125 7.328125 -1.828125 7.25 -1.84375 C 6.25 -2.171875 5.890625 -2.875 5.75 -3.484375 C 5.71875 -3.578125 5.671875 -3.578125 5.5625 -3.578125 C 5.46875 -3.578125 5.40625 -3.578125 5.40625 -3.46875 C 5.40625 -3.453125 5.46875 -2.984375 5.8125 -2.515625 C 5.96875 -2.28125 6.171875 -2.078125 6.390625 -1.90625 L 0.8125 -1.90625 C 0.703125 -1.90625 0.53125 -1.90625 0.53125 -1.75 C 0.53125 -1.578125 0.703125 -1.578125 0.8125 -1.578125 Z M 6.390625 -1.578125 "/>
</g>
</g>
<clipPath id="clip-0">
<path clip-rule="nonzero" d="M 0.101562 0 L 278.222656 0 L 278.222656 93.636719 L 0.101562 93.636719 Z M 0.101562 0 "/>
</clipPath>
<clipPath id="clip-1">
<path clip-rule="nonzero" d="M 148 0 L 150 0 L 150 93.636719 L 148 93.636719 Z M 148 0 "/>
</clipPath>
<clipPath id="clip-2">
<path clip-rule="nonzero" d="M 238 21 L 278.222656 21 L 278.222656 69 L 238 69 Z M 238 21 "/>
</clipPath>
<clipPath id="clip-3">
<path clip-rule="nonzero" d="M 37 41 L 108 41 L 108 93.636719 L 37 93.636719 Z M 37 41 "/>
</clipPath>
<clipPath id="clip-4">
<path clip-rule="nonzero" d="M 139 41 L 210 41 L 210 93.636719 L 139 93.636719 Z M 139 41 "/>
</clipPath>
<clipPath id="clip-5">
<path clip-rule="nonzero" d="M 189 41 L 260 41 L 260 93.636719 L 189 93.636719 Z M 189 41 "/>
</clipPath>
</defs>
<g clip-path="url(#clip-0)">
<path fill-rule="nonzero" fill="rgb(7.058716%, 7.058716%, 7.058716%)" fill-opacity="1" d="M 0.101562 93.636719 L 278.222656 93.636719 L 278.222656 0 L 0.101562 0 Z M 0.101562 93.636719 "/>
</g>
<g clip-path="url(#clip-1)">
<path fill="none" stroke-width="1.19553" stroke-linecap="butt" stroke-linejoin="miter" stroke="rgb(50%, 50%, 50%)" stroke-opacity="1" stroke-dasharray="2.98883 1.99255" stroke-miterlimit="10" d="M 119.617721 25.872098 L 119.617721 -66.752551 " transform="matrix(0.998064, 0, 0, -0.998064, 29.32091, 26.415755)"/>
</g>
<g fill="rgb(50%, 50%, 50%)" fill-opacity="1">
<use xlink:href="#glyph-0-0" x="151.765377" y="9.485599"/>
</g>
<g fill="rgb(50%, 50%, 50%)" fill-opacity="1">
<use xlink:href="#glyph-0-1" x="156.196999" y="9.485599"/>
<use xlink:href="#glyph-0-2" x="158.722891" y="9.485599"/>
<use xlink:href="#glyph-0-3" x="162.275427" y="9.485599"/>
<use xlink:href="#glyph-0-4" x="166.093846" y="9.485599"/>
<use xlink:href="#glyph-0-5" x="167.858281" y="9.485599"/>
<use xlink:href="#glyph-0-4" x="170.528947" y="9.485599"/>
<use xlink:href="#glyph-0-6" x="172.293383" y="9.485599"/>
<use xlink:href="#glyph-0-7" x="175.991389" y="9.485599"/>
<use xlink:href="#glyph-0-2" x="179.809808" y="9.485599"/>
<use xlink:href="#glyph-0-8" x="183.362344" y="9.485599"/>
</g>
<g fill="rgb(50%, 50%, 50%)" fill-opacity="1">
<use xlink:href="#glyph-0-9" x="187.597685" y="9.485599"/>
<use xlink:href="#glyph-0-0" x="192.38289" y="9.485599"/>
<use xlink:href="#glyph-0-10" x="197.433977" y="9.485599"/>
</g>
<g fill="rgb(50%, 50%, 50%)" fill-opacity="1">
<use xlink:href="#glyph-0-11" x="203.921671" y="9.485599"/>
</g>
<g fill="rgb(50%, 50%, 50%)" fill-opacity="1">
<use xlink:href="#glyph-0-6" x="208.76395" y="9.485599"/>
</g>
<g fill="rgb(50%, 50%, 50%)" fill-opacity="1">
<use xlink:href="#glyph-0-1" x="212.260107" y="9.485599"/>
<use xlink:href="#glyph-0-12" x="214.785999" y="9.485599"/>
<use xlink:href="#glyph-0-13" x="218.39909" y="9.485599"/>
<use xlink:href="#glyph-0-6" x="222.362979" y="9.485599"/>
</g>
<g fill="rgb(50%, 50%, 50%)" fill-opacity="1">
<use xlink:href="#glyph-0-11" x="225.852176" y="9.485599"/>
</g>
<g fill="rgb(50%, 50%, 50%)" fill-opacity="1">
<use xlink:href="#glyph-1-0" x="151.765377" y="17.440167"/>
</g>
<g fill="rgb(50%, 50%, 50%)" fill-opacity="1">
<use xlink:href="#glyph-1-1" x="156.622969" y="17.440167"/>
</g>
<path fill-rule="nonzero" fill="rgb(27.49939%, 42.495728%, 50%)" fill-opacity="1" stroke-width="1.19553" stroke-linecap="butt" stroke-linejoin="miter" stroke="rgb(95.292664%, 95.684814%, 96.076965%)" stroke-opacity="1" stroke-miterlimit="10" d="M -20.375987 -5.927753 L 20.378702 -5.927753 L 20.378702 5.927232 L -20.375987 5.927232 Z M -20.375987 -5.927753 " transform="matrix(0.998064, 0, 0, -0.998064, 29.32091, 26.415755)"/>
<g fill="rgb(95.292664%, 95.684814%, 96.076965%)" fill-opacity="1">
<use xlink:href="#glyph-0-14" x="20.807426" y="28.833066"/>
</g>
<g fill="rgb(95.292664%, 95.684814%, 96.076965%)" fill-opacity="1">
<use xlink:href="#glyph-0-1" x="27.590236" y="28.833066"/>
</g>
<g fill="rgb(95.292664%, 95.684814%, 96.076965%)" fill-opacity="1">
<use xlink:href="#glyph-0-4" x="30.109168" y="28.833066"/>
<use xlink:href="#glyph-0-5" x="31.873603" y="28.833066"/>
<use xlink:href="#glyph-0-15" x="34.544269" y="28.833066"/>
</g>
<path fill="none" stroke-width="1.19553" stroke-linecap="butt" stroke-linejoin="miter" stroke="rgb(95.292664%, 95.684814%, 96.076965%)" stroke-opacity="1" stroke-miterlimit="10" d="M 28.488154 -5.53637 L 32.519396 5.535849 L 58.21759 5.535849 L 54.186347 -5.53637 Z M 28.488154 -5.53637 " transform="matrix(0.998064, 0, 0, -0.998064, 29.32091, 26.415755)"/>
<g fill="rgb(95.292664%, 95.684814%, 96.076965%)" fill-opacity="1">
<use xlink:href="#glyph-0-16" x="64.241168" y="28.124441"/>
<use xlink:href="#glyph-0-17" x="66.295152" y="28.124441"/>
<use xlink:href="#glyph-0-4" x="69.130081" y="28.124441"/>
<use xlink:href="#glyph-0-1" x="70.894516" y="28.124441"/>
<use xlink:href="#glyph-0-6" x="73.420408" y="28.124441"/>
<use xlink:href="#glyph-0-18" x="77.118414" y="28.124441"/>
</g>
<path fill-rule="nonzero" fill="rgb(27.49939%, 42.495728%, 50%)" fill-opacity="1" stroke-width="1.19553" stroke-linecap="butt" stroke-linejoin="miter" stroke="rgb(95.292664%, 95.684814%, 96.076965%)" stroke-opacity="1" stroke-miterlimit="10" d="M 22.977484 -24.518435 L 63.732173 -24.518435 L 63.732173 -12.659537 L 22.977484 -12.659537 Z M 22.977484 -24.518435 " transform="matrix(0.998064, 0, 0, -0.998064, 29.32091, 26.415755)"/>
<g fill="rgb(95.292664%, 95.684814%, 96.076965%)" fill-opacity="1">
<use xlink:href="#glyph-0-0" x="65.975803" y="47.386075"/>
</g>
<g fill="rgb(95.292664%, 95.684814%, 96.076965%)" fill-opacity="1">
<use xlink:href="#glyph-0-15" x="70.414384" y="47.386075"/>
<use xlink:href="#glyph-0-17" x="73.701037" y="47.386075"/>
<use xlink:href="#glyph-0-5" x="76.535966" y="47.386075"/>
</g>
<path fill-rule="nonzero" fill="rgb(27.49939%, 42.495728%, 50%)" fill-opacity="1" stroke-width="1.19553" stroke-linecap="butt" stroke-linejoin="miter" stroke="rgb(95.292664%, 95.684814%, 96.076965%)" stroke-opacity="1" stroke-miterlimit="10" d="M 73.818108 -24.518435 L 114.572797 -24.518435 L 114.572797 -12.659537 L 73.818108 -12.659537 Z M 73.818108 -24.518435 " transform="matrix(0.998064, 0, 0, -0.998064, 29.32091, 26.415755)"/>
<g fill="rgb(95.292664%, 95.684814%, 96.076965%)" fill-opacity="1">
<use xlink:href="#glyph-0-19" x="110.867716" y="46.709387"/>
<use xlink:href="#glyph-0-6" x="115.592366" y="46.709387"/>
<use xlink:href="#glyph-0-20" x="119.290372" y="46.709387"/>
<use xlink:href="#glyph-0-18" x="125.163471" y="46.709387"/>
<use xlink:href="#glyph-0-4" x="128.98189" y="46.709387"/>
<use xlink:href="#glyph-0-8" x="130.746325" y="46.709387"/>
<use xlink:href="#glyph-0-15" x="132.510761" y="46.709387"/>
</g>
<path fill-rule="nonzero" fill="rgb(27.49939%, 42.495728%, 50%)" fill-opacity="1" stroke-width="1.19553" stroke-linecap="butt" stroke-linejoin="miter" stroke="rgb(95.292664%, 95.684814%, 96.076965%)" stroke-opacity="1" stroke-miterlimit="10" d="M 124.658731 -24.518435 L 165.413421 -24.518435 L 165.413421 -12.659537 L 124.658731 -12.659537 Z M 124.658731 -24.518435 " transform="matrix(0.998064, 0, 0, -0.998064, 29.32091, 26.415755)"/>
<g fill="rgb(95.292664%, 95.684814%, 96.076965%)" fill-opacity="1">
<use xlink:href="#glyph-0-21" x="160.65613" y="47.386075"/>
<use xlink:href="#glyph-0-4" x="164.764793" y="47.386075"/>
<use xlink:href="#glyph-0-20" x="166.529229" y="47.386075"/>
<use xlink:href="#glyph-0-22" x="172.402328" y="47.386075"/>
<use xlink:href="#glyph-0-8" x="176.220747" y="47.386075"/>
<use xlink:href="#glyph-0-2" x="177.985183" y="47.386075"/>
<use xlink:href="#glyph-0-5" x="181.537718" y="47.386075"/>
<use xlink:href="#glyph-0-15" x="184.208385" y="47.386075"/>
</g>
<path fill-rule="nonzero" fill="rgb(27.49939%, 42.495728%, 50%)" fill-opacity="1" stroke-width="1.19553" stroke-linecap="butt" stroke-linejoin="miter" stroke="rgb(95.292664%, 95.684814%, 96.076965%)" stroke-opacity="1" stroke-miterlimit="10" d="M 175.503269 -24.518435 L 216.257958 -24.518435 L 216.257958 -12.659537 L 175.503269 -12.659537 Z M 175.503269 -24.518435 " transform="matrix(0.998064, 0, 0, -0.998064, 29.32091, 26.415755)"/>
<g fill="rgb(95.292664%, 95.684814%, 96.076965%)" fill-opacity="1">
<use xlink:href="#glyph-0-21" x="208.712903" y="46.709387"/>
<use xlink:href="#glyph-0-23" x="212.821567" y="46.709387"/>
<use xlink:href="#glyph-0-7" x="216.229329" y="46.709387"/>
<use xlink:href="#glyph-0-5" x="220.047748" y="46.709387"/>
<use xlink:href="#glyph-0-24" x="222.718414" y="46.709387"/>
<use xlink:href="#glyph-0-15" x="226.536833" y="46.709387"/>
<use xlink:href="#glyph-0-17" x="229.823486" y="46.709387"/>
<use xlink:href="#glyph-0-4" x="232.658415" y="46.709387"/>
<use xlink:href="#glyph-0-25" x="234.42285" y="46.709387"/>
<use xlink:href="#glyph-0-15" x="237.637116" y="46.709387"/>
</g>
<path fill-rule="nonzero" fill="rgb(29.374695%, 50%, 27.49939%)" fill-opacity="1" d="M 272.65625 44.96875 C 272.65625 41.15625 268.753906 38.066406 263.941406 38.066406 C 259.128906 38.066406 255.226562 41.15625 255.226562 44.96875 C 255.226562 48.78125 259.128906 51.871094 263.941406 51.871094 C 268.753906 51.871094 272.65625 48.78125 272.65625 44.96875 Z M 272.65625 44.96875 "/>
<g clip-path="url(#clip-2)">
<path fill="none" stroke-width="1.19553" stroke-linecap="butt" stroke-linejoin="miter" stroke="rgb(95.292664%, 95.684814%, 96.076965%)" stroke-opacity="1" stroke-miterlimit="10" d="M 243.807392 -18.588986 C 243.807392 -14.76909 239.897478 -11.673252 235.075642 -11.673252 C 230.253806 -11.673252 226.343892 -14.76909 226.343892 -18.588986 C 226.343892 -22.408882 230.253806 -25.50472 235.075642 -25.50472 C 239.897478 -25.50472 243.807392 -22.408882 243.807392 -18.588986 Z M 243.807392 -18.588986 " transform="matrix(0.998064, 0, 0, -0.998064, 29.32091, 26.415755)"/>
</g>
<g fill="rgb(95.292664%, 95.684814%, 96.076965%)" fill-opacity="1">
<use xlink:href="#glyph-0-26" x="260.240943" y="47.386075"/>
<use xlink:href="#glyph-0-27" x="262.294926" y="47.386075"/>
</g>
<path fill-rule="nonzero" fill="rgb(50%, 38.749695%, 27.49939%)" fill-opacity="1" d="M 90.640625 68.160156 L 72.589844 58.242188 L 54.539062 68.160156 L 72.589844 78.078125 Z M 90.640625 68.160156 "/>
<g clip-path="url(#clip-3)">
<path fill="none" stroke-width="1.19553" stroke-linecap="butt" stroke-linejoin="miter" stroke="rgb(95.292664%, 95.684814%, 96.076965%)" stroke-opacity="1" stroke-miterlimit="10" d="M 61.43867 -41.825382 L 43.352872 -31.888173 L 25.267073 -41.825382 L 43.352872 -51.762591 Z M 61.43867 -41.825382 " transform="matrix(0.998064, 0, 0, -0.998064, 29.32091, 26.415755)"/>
</g>
<g fill="rgb(95.292664%, 95.684814%, 96.076965%)" fill-opacity="1">
<use xlink:href="#glyph-0-28" x="65.544639" y="70.577086"/>
<use xlink:href="#glyph-0-29" x="71.006385" y="70.577086"/>
<use xlink:href="#glyph-0-30" x="76.142388" y="70.577086"/>
</g>
<path fill-rule="nonzero" fill="rgb(50%, 38.749695%, 27.49939%)" fill-opacity="1" d="M 192.128906 68.160156 L 174.078125 58.242188 L 156.027344 68.160156 L 174.078125 78.078125 Z M 192.128906 68.160156 "/>
<g clip-path="url(#clip-4)">
<path fill="none" stroke-width="1.19553" stroke-linecap="butt" stroke-linejoin="miter" stroke="rgb(95.292664%, 95.684814%, 96.076965%)" stroke-opacity="1" stroke-miterlimit="10" d="M 163.123831 -41.825382 L 145.038033 -31.888173 L 126.952234 -41.825382 L 145.038033 -51.762591 Z M 163.123831 -41.825382 " transform="matrix(0.998064, 0, 0, -0.998064, 29.32091, 26.415755)"/>
</g>
<g fill="rgb(95.292664%, 95.684814%, 96.076965%)" fill-opacity="1">
<use xlink:href="#glyph-0-28" x="167.030764" y="70.577086"/>
<use xlink:href="#glyph-0-29" x="172.492509" y="70.577086"/>
<use xlink:href="#glyph-0-30" x="177.628513" y="70.577086"/>
</g>
<path fill-rule="nonzero" fill="rgb(50%, 38.749695%, 27.49939%)" fill-opacity="1" d="M 242.871094 68.160156 L 224.820312 58.242188 L 206.769531 68.160156 L 224.820312 78.078125 Z M 242.871094 68.160156 "/>
<g clip-path="url(#clip-5)">
<path fill="none" stroke-width="1.19553" stroke-linecap="butt" stroke-linejoin="miter" stroke="rgb(95.292664%, 95.684814%, 96.076965%)" stroke-opacity="1" stroke-miterlimit="10" d="M 213.964455 -41.825382 L 195.878656 -31.888173 L 177.792858 -41.825382 L 195.878656 -51.762591 Z M 213.964455 -41.825382 " transform="matrix(0.998064, 0, 0, -0.998064, 29.32091, 26.415755)"/>
</g>
<g fill="rgb(95.292664%, 95.684814%, 96.076965%)" fill-opacity="1">
<use xlink:href="#glyph-0-28" x="217.773327" y="70.577086"/>
<use xlink:href="#glyph-0-29" x="223.235072" y="70.577086"/>
<use xlink:href="#glyph-0-30" x="228.371076" y="70.577086"/>
</g>
<path fill="none" stroke-width="1.19553" stroke-linecap="butt" stroke-linejoin="miter" stroke="rgb(95.292664%, 95.684814%, 96.076965%)" stroke-opacity="1" stroke-miterlimit="10" d="M 132.443335 -5.53637 L 136.004918 4.244286 L 157.628817 4.244286 L 154.067234 -5.53637 Z M 132.443335 -5.53637 " transform="matrix(0.998064, 0, 0, -0.998064, 29.32091, 26.415755)"/>
<g fill="rgb(95.292664%, 95.684814%, 96.076965%)" fill-opacity="1">
<use xlink:href="#glyph-0-16" x="167.524805" y="29.477815"/>
<use xlink:href="#glyph-0-31" x="169.578789" y="29.477815"/>
<use xlink:href="#glyph-0-24" x="172.986551" y="29.477815"/>
<use xlink:href="#glyph-0-3" x="176.80497" y="29.477815"/>
</g>
<path fill="none" stroke-width="1.19553" stroke-linecap="butt" stroke-linejoin="miter" stroke="rgb(95.292664%, 95.684814%, 96.076965%)" stroke-opacity="1" stroke-miterlimit="10" d="M 20.973604 0.00169617 L 28.910847 0.00169617 " transform="matrix(0.998064, 0, 0, -0.998064, 29.32091, 26.415755)"/>
<path fill="none" stroke-width="0.9564" stroke-linecap="round" stroke-linejoin="round" stroke="rgb(95.292664%, 95.684814%, 96.076965%)" stroke-opacity="1" stroke-miterlimit="10" d="M -1.913565 2.549598 C -1.753098 1.594624 0.000297082 0.158249 0.477784 0.00169617 C 0.000297082 -0.158771 -1.753098 -1.595146 -1.913565 -2.55012 " transform="matrix(0.998064, 0, 0, -0.998064, 58.175485, 26.415755)"/>
<path fill="none" stroke-width="1.19553" stroke-linecap="butt" stroke-linejoin="miter" stroke="rgb(95.292664%, 95.684814%, 96.076965%)" stroke-opacity="1" stroke-miterlimit="10" d="M 43.352872 -6.135186 L 43.352872 -11.105747 " transform="matrix(0.998064, 0, 0, -0.998064, 29.32091, 26.415755)"/>
<path fill="none" stroke-width="0.9564" stroke-linecap="round" stroke-linejoin="round" stroke="rgb(95.292664%, 95.684814%, 96.076965%)" stroke-opacity="1" stroke-miterlimit="10" d="M -1.911853 2.551314 C -1.755133 1.592433 -0.00146004 0.160242 0.479978 -0.000146607 C -0.00140548 -0.160699 -1.754592 -1.593486 -1.910986 -2.548506 " transform="matrix(-0.000169671, 0.998044, 0.998044, 0.000169671, 72.590072, 37.50143)"/>
<path fill="none" stroke-width="1.19553" stroke-linecap="butt" stroke-linejoin="miter" stroke="rgb(95.292664%, 95.684814%, 96.076965%)" stroke-opacity="1" stroke-miterlimit="10" d="M 43.352872 -25.113337 L 43.352872 -30.087812 " transform="matrix(0.998064, 0, 0, -0.998064, 29.32091, 26.415755)"/>
<path fill="none" stroke-width="0.9564" stroke-linecap="round" stroke-linejoin="round" stroke="rgb(95.292664%, 95.684814%, 96.076965%)" stroke-opacity="1" stroke-miterlimit="10" d="M -1.91203 2.551338 C -1.751563 1.59245 0.00183224 0.159989 0.479319 -0.0004782 C 0.00183224 -0.160945 -1.751563 -1.593406 -1.91203 -2.552294 " transform="matrix(0, 0.998064, 0.998064, 0, 72.590321, 56.443484)"/>
<path fill="none" stroke-width="1.19553" stroke-linecap="butt" stroke-linejoin="miter" stroke="rgb(95.292664%, 95.684814%, 96.076965%)" stroke-opacity="1" stroke-miterlimit="10" d="M 94.193495 -12.064635 L 94.193495 -0.647999 L 132.631199 -0.647999 " transform="matrix(0.998064, 0, 0, -0.998064, 29.32091, 26.415755)"/>
<path fill="none" stroke-width="0.9564" stroke-linecap="round" stroke-linejoin="round" stroke="rgb(95.292664%, 95.684814%, 96.076965%)" stroke-opacity="1" stroke-miterlimit="10" d="M -1.913693 2.549906 C -1.753226 1.594933 0.000168587 0.158558 0.477656 -0.00190925 C 0.000168587 -0.158462 -1.753226 -1.594837 -1.913693 -2.549811 " transform="matrix(0.998064, 0, 0, -0.998064, 161.695144, 27.060594)"/>
<path fill="none" stroke-width="1.19553" stroke-linecap="butt" stroke-linejoin="miter" stroke="rgb(95.292664%, 95.684814%, 96.076965%)" stroke-opacity="1" stroke-miterlimit="10" d="M 145.038033 -6.135186 L 145.038033 -11.105747 " transform="matrix(0.998064, 0, 0, -0.998064, 29.32091, 26.415755)"/>
<path fill="none" stroke-width="0.9564" stroke-linecap="round" stroke-linejoin="round" stroke="rgb(95.292664%, 95.684814%, 96.076965%)" stroke-opacity="1" stroke-miterlimit="10" d="M -1.911648 2.548964 C -1.755006 1.593985 -0.00144699 0.157739 0.479978 0.00122605 C -0.00141846 -0.159287 -1.754719 -1.595849 -1.911189 -2.550856 " transform="matrix(-0.0000898257, 0.998044, 0.998044, 0.0000898257, 174.076944, 37.50143)"/>
<path fill="none" stroke-width="1.19553" stroke-linecap="butt" stroke-linejoin="miter" stroke="rgb(95.292664%, 95.684814%, 96.076965%)" stroke-opacity="1" stroke-miterlimit="10" d="M 145.038033 -25.113337 L 145.038033 -30.087812 " transform="matrix(0.998064, 0, 0, -0.998064, 29.32091, 26.415755)"/>
<path fill="none" stroke-width="0.9564" stroke-linecap="round" stroke-linejoin="round" stroke="rgb(95.292664%, 95.684814%, 96.076965%)" stroke-opacity="1" stroke-miterlimit="10" d="M -1.91203 2.548775 C -1.751563 1.593801 0.00183224 0.157426 0.479319 0.00087283 C 0.00183224 -0.159594 -1.751563 -1.595969 -1.91203 -2.550943 " transform="matrix(0, 0.998064, 0.998064, 0, 174.077254, 56.443484)"/>
<path fill="none" stroke-width="1.19553" stroke-linecap="butt" stroke-linejoin="miter" stroke="rgb(95.292664%, 95.684814%, 96.076965%)" stroke-opacity="1" stroke-miterlimit="10" d="M 195.878656 -25.113337 L 195.878656 -30.087812 " transform="matrix(0.998064, 0, 0, -0.998064, 29.32091, 26.415755)"/>
<path fill="none" stroke-width="0.9564" stroke-linecap="round" stroke-linejoin="round" stroke="rgb(95.292664%, 95.684814%, 96.076965%)" stroke-opacity="1" stroke-miterlimit="10" d="M -1.91203 2.551412 C -1.751563 1.592524 0.00183224 0.160063 0.479319 -0.000403569 C 0.00183224 -0.160871 -1.751563 -1.593331 -1.91203 -2.552219 " transform="matrix(0, 0.998064, 0.998064, 0, 224.820715, 56.443484)"/>
<path fill="none" stroke-width="1.19553" stroke-linecap="butt" stroke-linejoin="miter" stroke="rgb(95.292664%, 95.684814%, 96.076965%)" stroke-opacity="1" stroke-miterlimit="10" d="M 62.284057 -41.825382 L 94.193495 -41.825382 L 94.193495 -26.072225 " transform="matrix(0.998064, 0, 0, -0.998064, 29.32091, 26.415755)"/>
<path fill="none" stroke-width="0.9564" stroke-linecap="round" stroke-linejoin="round" stroke="rgb(95.292664%, 95.684814%, 96.076965%)" stroke-opacity="1" stroke-miterlimit="10" d="M -1.914677 2.549657 C -1.75421 1.594683 -0.000814882 0.158308 0.476672 0.0017546 C -0.000814882 -0.158712 -1.75421 -1.595087 -1.914677 -2.550061 " transform="matrix(0, -0.998064, -0.998064, 0, 123.333782, 52.436687)"/>
<g fill="rgb(95.292664%, 95.684814%, 96.076965%)" fill-opacity="1">
<use xlink:href="#glyph-0-32" x="89.0191" y="65.098713"/>
</g>
<path fill="none" stroke-width="1.19553" stroke-linecap="butt" stroke-linejoin="miter" stroke="rgb(95.292664%, 95.684814%, 96.076965%)" stroke-opacity="1" stroke-miterlimit="10" d="M 163.969218 -41.825382 L 170.458345 -41.825382 L 170.458345 -18.588986 L 173.949479 -18.588986 " transform="matrix(0.998064, 0, 0, -0.998064, 29.32091, 26.415755)"/>
<path fill="none" stroke-width="0.9564" stroke-linecap="round" stroke-linejoin="round" stroke="rgb(95.292664%, 95.684814%, 96.076965%)" stroke-opacity="1" stroke-miterlimit="10" d="M -1.912013 2.55213 C -1.751546 1.593242 0.00184906 0.160781 0.479336 0.000313942 C 0.00184906 -0.160153 -1.751546 -1.592614 -1.912013 -2.551502 " transform="matrix(0.998064, 0, 0, -0.998064, 202.931748, 44.969063)"/>
<g fill="rgb(95.292664%, 95.684814%, 96.076965%)" fill-opacity="1">
<use xlink:href="#glyph-0-32" x="190.505225" y="65.098713"/>
</g>
<path fill="none" stroke-width="1.19553" stroke-linecap="butt" stroke-linejoin="miter" stroke="rgb(95.292664%, 95.684814%, 96.076965%)" stroke-opacity="1" stroke-miterlimit="10" d="M 214.809842 -41.825382 L 221.298968 -41.825382 L 221.298968 -18.588986 L 224.790103 -18.588986 " transform="matrix(0.998064, 0, 0, -0.998064, 29.32091, 26.415755)"/>
<path fill="none" stroke-width="0.9564" stroke-linecap="round" stroke-linejoin="round" stroke="rgb(95.292664%, 95.684814%, 96.076965%)" stroke-opacity="1" stroke-miterlimit="10" d="M -1.913299 2.55213 C -1.752832 1.593242 0.000562662 0.160781 0.47805 0.000313942 C 0.000562662 -0.160153 -1.752832 -1.592614 -1.913299 -2.551502 " transform="matrix(0.998064, 0, 0, -0.998064, 253.67522, 44.969063)"/>
<g fill="rgb(95.292664%, 95.684814%, 96.076965%)" fill-opacity="1">
<use xlink:href="#glyph-0-32" x="241.247788" y="65.098713"/>
</g>
<path fill="none" stroke-width="1.19553" stroke-linecap="butt" stroke-linejoin="miter" stroke="rgb(95.292664%, 95.684814%, 96.076965%)" stroke-opacity="1" stroke-miterlimit="10" d="M 43.352872 -52.607978 L 43.352872 -58.537427 L -0.000599149 -58.537427 L -0.000599149 -7.481543 " transform="matrix(0.998064, 0, 0, -0.998064, 29.32091, 26.415755)"/>
<path fill="none" stroke-width="0.9564" stroke-linecap="round" stroke-linejoin="round" stroke="rgb(95.292664%, 95.684814%, 96.076965%)" stroke-opacity="1" stroke-miterlimit="10" d="M -1.913284 2.552415 C -1.752818 1.593527 0.000577343 0.161066 0.478064 0.000599149 C 0.000577343 -0.159868 -1.752818 -1.592329 -1.913284 -2.551217 " transform="matrix(0, -0.998064, -0.998064, 0, 29.32091, 33.883389)"/>
<g fill="rgb(95.292664%, 95.684814%, 96.076965%)" fill-opacity="1">
<use xlink:href="#glyph-0-33" x="75.651033" y="82.33328"/>
</g>
<path fill="none" stroke-width="1.19553" stroke-linecap="butt" stroke-linejoin="miter" stroke="rgb(95.292664%, 95.684814%, 96.076965%)" stroke-opacity="1" stroke-miterlimit="10" d="M 145.038033 -52.607978 L 145.038033 -58.537427 L -0.000599149 -58.537427 L -0.000599149 -7.481543 " transform="matrix(0.998064, 0, 0, -0.998064, 29.32091, 26.415755)"/>
<path fill="none" stroke-width="0.9564" stroke-linecap="round" stroke-linejoin="round" stroke="rgb(95.292664%, 95.684814%, 96.076965%)" stroke-opacity="1" stroke-miterlimit="10" d="M -1.913284 2.552415 C -1.752818 1.593527 0.000577343 0.161066 0.478064 0.000599149 C 0.000577343 -0.159868 -1.752818 -1.592329 -1.913284 -2.551217 " transform="matrix(0, -0.998064, -0.998064, 0, 29.32091, 33.883389)"/>
<g fill="rgb(95.292664%, 95.684814%, 96.076965%)" fill-opacity="1">
<use xlink:href="#glyph-0-33" x="177.137158" y="82.33328"/>
</g>
<path fill="none" stroke-width="1.19553" stroke-linecap="butt" stroke-linejoin="miter" stroke="rgb(95.292664%, 95.684814%, 96.076965%)" stroke-opacity="1" stroke-miterlimit="10" d="M 195.878656 -52.607978 L 195.878656 -58.537427 L -0.000599149 -58.537427 L -0.000599149 -7.481543 " transform="matrix(0.998064, 0, 0, -0.998064, 29.32091, 26.415755)"/>
<path fill="none" stroke-width="0.9564" stroke-linecap="round" stroke-linejoin="round" stroke="rgb(95.292664%, 95.684814%, 96.076965%)" stroke-opacity="1" stroke-miterlimit="10" d="M -1.913284 2.552415 C -1.752818 1.593527 0.000577343 0.161066 0.478064 0.000599149 C 0.000577343 -0.159868 -1.752818 -1.592329 -1.913284 -2.551217 " transform="matrix(0, -0.998064, -0.998064, 0, 29.32091, 33.883389)"/>
<g fill="rgb(95.292664%, 95.684814%, 96.076965%)" fill-opacity="1">
<use xlink:href="#glyph-0-33" x="227.879721" y="82.33328"/>
</g>
</svg>
